<svg xmlns="http://www.w3.org/2000/svg" xmlns:xlink="http://www.w3.org/1999/xlink" width="77.623" height="84.704" viewBox="0 0 77.623 84.704"><defs><style>.a{fill:none;}.b{fill:#fee3dc;opacity:0.3;}.c{clip-path:url(#a);}.d{fill:#f0b89f;}.e{fill:#493030;}.f{fill:#009ceb;}.g{fill:#d46e59;}.h{fill:#7700e6;}.i{fill:#3d8f85;}.j{fill:#38a295;}.k{opacity:0.084;}.l{fill:#eb7f61;}.m{opacity:0.2;}.n{fill:#e59c7e;}.o{fill:#e24c2c;}</style><clipPath id="a"><path class="a" d="M107.668,192.408c-1.694-4.775-4.75-8.923-7.668-13.066s-5.79-8.465-7.028-13.379c-1.152-4.573-.835-9.477-2.463-13.9a16.864,16.864,0,0,0-9.6-9.768,21.292,21.292,0,0,0-6.322-1.731,12.626,12.626,0,0,0-6.063-1.508c-5.018.07-9.718,2.967-12.8,6.927s-4.711,8.878-5.581,13.821a27.737,27.737,0,0,0,.1,11.906c.138.52.3,1.034.492,1.54q-1.8,1.639-3.711,3.165c-4.832,3.853-9.862,7.765-12.889,13.153a22.951,22.951,0,0,0,21.379,34.152c8.23-.492,15.548-5.315,23.581-7.173C84,215.408,89.107,215.4,94.051,214.43s9.991-3.138,12.717-7.373C109.51,202.8,109.363,197.184,107.668,192.408Z" transform="translate(-31.271 -139.05)"/></clipPath></defs><g transform="translate(-594.271 -329.105)"><path class="b" d="M60.667,162.661a64.956,64.956,0,0,1-13.642,14.593c-4.832,3.853-9.862,7.765-12.889,13.153a22.951,22.951,0,0,0,21.379,34.152c8.23-.492,15.548-5.315,23.581-7.173,4.908-1.135,10.012-1.145,14.956-2.113s9.991-3.138,12.717-7.373c2.742-4.261,2.594-9.872.9-14.648s-4.75-8.924-7.668-13.066-5.79-8.466-7.028-13.379c-1.152-4.573-.835-9.477-2.463-13.9a16.864,16.864,0,0,0-9.6-9.768c-2.817-1.093-6.782-2.69-9.679-1.028-2.628,1.508-3.523,5.222-4.383,7.875A51.258,51.258,0,0,1,60.667,162.661Z" transform="translate(563 189.212)"/><g transform="translate(594.271 329.105)"><g class="c" transform="translate(0 0)"><g transform="translate(5.271 6.365)"><path class="d" d="M125.745,198.046a1.815,1.815,0,0,1,2.784,1.3c.434.3.233,1.2-.187,1.519a1.959,1.959,0,0,1-1.516.223,2.718,2.718,0,0,1-2.175-1.472C125.008,199.164,125.262,198.357,125.745,198.046Z" transform="translate(-70.21 -166.584)"/><path class="e" d="M90.315,157a6.577,6.577,0,0,0,6.872-4.913,11.594,11.594,0,0,1-4.692-1.446,13.856,13.856,0,0,0-4.65-1.615,4.425,4.425,0,0,0-4.281,1.9c-.917.137-1.507,1.147-1.781,2.033a6.541,6.541,0,0,0,2.915,7.555,6.817,6.817,0,0,1,2.321-2.53C87.959,157.455,89.661,157.856,90.315,157Z" transform="translate(-54.65 -149.004)"/><path class="f" d="M91.957,172.837a48.445,48.445,0,0,0,22.314,15.95c-.451.767-1.115,1.5-1.567,2.269a42.589,42.589,0,0,1-20.6-6.876C88.969,182.124,90.121,176.11,91.957,172.837Z" transform="translate(-57.77 -157.597)"/><path class="g" d="M91.957,172.837a48.445,48.445,0,0,0,22.314,15.95c-.451.767-1.115,1.5-1.567,2.269a42.589,42.589,0,0,1-20.6-6.876C88.969,182.124,90.121,176.11,91.957,172.837Z" transform="translate(-57.77 -157.597)"/><path class="h" d="M79.562,210.006c2.083,4.564.113,9.872-1.967,14.438A295.34,295.34,0,0,1,61.454,255a15.191,15.191,0,0,1-4.859-2.924,152.307,152.307,0,0,0,15.021-37.052C72.459,211.835,76.265,209.931,79.562,210.006Z" transform="translate(-45.672 -170.998)"/><path class="i" d="M79.562,210.006c2.083,4.564.113,9.872-1.967,14.438A295.34,295.34,0,0,1,61.454,255a15.191,15.191,0,0,1-4.859-2.924,152.307,152.307,0,0,0,15.021-37.052C72.459,211.835,76.265,209.931,79.562,210.006Z" transform="translate(-45.672 -170.998)"/><path class="j" d="M72.956,210.862c-.939,3.7.959,7.451,2.642,10.876a123.682,123.682,0,0,1,11.331,36.386,9.486,9.486,0,0,0,5.292-1.274c-.4-15.269-7.683-29.948-10.192-45.016C79.215,211.459,75.641,211.783,72.956,210.862Z" transform="translate(-51.481 -171.307)"/><path class="k" d="M85.888,211.455a19.187,19.187,0,0,1-1.46-1.39,9.508,9.508,0,0,0-4.083,1.334c-2.464-.145-5.215-.079-7.388-.824-.655,2.58.072,5.187,1.142,7.69a20.941,20.941,0,0,0,12.094-5.16A10.244,10.244,0,0,0,85.888,211.455Z" transform="translate(-51.481 -171.02)"/><path class="l" d="M80.719,169.109c-2.908,2.176-4.463,5.683-5.715,9.092-2.251,6.13-3.936,12.605-3.549,19.125,2.747,1.491,6.166,1.131,9.29,1.015a21.269,21.269,0,0,0,5.8-.754c-1.3-7.535,2.111-15.831.373-23.277A7.543,7.543,0,0,0,80.719,169.109Z" transform="translate(-51.01 -156.253)"/><path class="d" d="M85.406,162.9q-.591,2.52-.984,5.08a4.182,4.182,0,0,0,3.128.968,32.592,32.592,0,0,1,1.436-4.28C87.853,164.15,86.539,163.423,85.406,162.9Z" transform="translate(-55.705 -154.015)"/><path class="m" d="M85.11,165.45a10.221,10.221,0,0,0,2.908,2.678c.336-1.173.776-2.319,1.216-3.458-1.133-.521-2.447-1.247-3.58-1.768Q85.357,164.171,85.11,165.45Z" transform="translate(-55.953 -154.015)"/><path class="d" d="M91.845,153.911a21.389,21.389,0,0,1-1.983,9.641,7.327,7.327,0,0,1-6.286-7.5,4.444,4.444,0,0,1,.923-2.684,4.549,4.549,0,0,1,3.134-1.409A4.819,4.819,0,0,1,91.845,153.911Z" transform="translate(-55.398 -150.065)"/><path class="e" d="M93.12,156.856a5.7,5.7,0,0,1-5.438-.978,3.587,3.587,0,0,1-1.5,1.287c-.109.545-.237,1.142-.347,1.687-.065-.023-.179-.1-.245-.123a6.967,6.967,0,0,0-.5-1.912c-.066-.157-.164-.333-.333-.358-.2-.03-.359.177-.436.368a2.312,2.312,0,0,0,.575,2.518c-.169.32-.563.766-.732,1.085-2.014-1.5-2.45-4.577-1.4-6.857a5.529,5.529,0,0,1,10.547,2.411Z" transform="translate(-54.909 -149.498)"/><path class="n" d="M95.331,165.57c.129.022.278.047.344.16a.278.278,0,0,1-.059.322.642.642,0,0,1-.311.155,2,2,0,0,1-2.441-1.488c-.053-.23-.072-.76.287-.726.265.026.462.5.616.68A2.726,2.726,0,0,0,95.331,165.57Z" transform="translate(-58.738 -154.408)"/><g transform="translate(0 53.968)"><g transform="translate(7.15)"><path class="l" d="M58.85,241.258H53.473a2.781,2.781,0,0,1-2.778-2.778v-2.3a2.781,2.781,0,0,1,2.778-2.778H58.85a2.782,2.782,0,0,1,2.778,2.778v2.3A2.782,2.782,0,0,1,58.85,241.258Zm-5.376-7.216a2.142,2.142,0,0,0-2.139,2.139v2.3a2.142,2.142,0,0,0,2.139,2.139H58.85a2.142,2.142,0,0,0,2.139-2.139v-2.3a2.142,2.142,0,0,0-2.139-2.139Z" transform="translate(-50.695 -233.402)"/></g><rect class="l" width="23.3" height="15.038" transform="translate(0.967 3.095)"/><path class="m" d="M64.325,240.018h-23.3v5.815a5.9,5.9,0,0,0,4.94,2.673H59.385a5.9,5.9,0,0,0,4.94-2.673Z" transform="translate(-40.058 -235.787)"/><path class="o" d="M0,0H25.233a0,0,0,0,1,0,0V0a8.488,8.488,0,0,1-8.488,8.488H8.488A8.488,8.488,0,0,1,0,0V0A0,0,0,0,1,0,0Z" transform="translate(0 3.095)"/></g><path class="d" d="M59.057,228.39a2.453,2.453,0,0,1,.021,4.153c-.111.7-1.335.98-1.964.65a2.646,2.646,0,0,1-1.148-1.724,3.675,3.675,0,0,1,.54-3.508C57.264,228.135,58.4,227.979,59.057,228.39Z" transform="translate(-45.374 -177.472)"/><path class="l" d="M74.806,170.125a12.314,12.314,0,0,0-7.7,3.984,27.038,27.038,0,0,0-4.727,7.451,68.829,68.829,0,0,0-6.319,26.256,7.215,7.215,0,0,0,4.151.558c.454-10.6,5.26-22.392,13.439-29.156A31.716,31.716,0,0,0,74.806,170.125Z" transform="translate(-45.479 -156.62)"/></g></g></g></g></svg>